<svg width="60" height="60" viewBox="0 0 371 336" fill="none" xmlns="http://www.w3.org/2000/svg">
<path d="M180.581 87.1672L61.8382 201.067V323.999C61.8382 327.182 62.9239 330.234 64.8564 332.485C66.7889 334.736 69.41 336 72.143 336L144.315 335.782C147.039 335.767 149.647 334.495 151.568 332.246C153.49 329.997 154.568 326.954 154.568 323.781V251.991C154.568 248.808 155.654 245.755 157.586 243.504C159.519 241.254 162.14 239.989 164.873 239.989H206.092C208.825 239.989 211.446 241.254 213.379 243.504C215.311 245.755 216.397 248.808 216.397 251.991V323.729C216.393 325.308 216.656 326.872 217.172 328.333C217.688 329.793 218.446 331.121 219.404 332.239C220.361 333.358 221.498 334.245 222.751 334.85C224.003 335.456 225.346 335.767 226.702 335.767L298.848 336C301.581 336 304.202 334.736 306.134 332.485C308.067 330.234 309.153 327.182 309.153 323.999V200.985L190.435 87.1672C189.04 85.857 187.301 85.1425 185.508 85.1425C183.716 85.1425 181.977 85.857 180.581 87.1672ZM368.147 164.583L314.305 112.895V9.001C314.305 6.61379 313.491 4.32435 312.041 2.63633C310.592 0.948319 308.626 0 306.576 0H270.51C268.46 0 266.494 0.948319 265.045 2.63633C263.595 4.32435 262.781 6.61379 262.781 9.001V63.4646L205.119 8.21342C199.586 2.91017 192.642 0.0106013 185.476 0.0106013C178.31 0.0106013 171.366 2.91017 165.833 8.21342L2.80482 164.583C2.02222 165.337 1.37474 166.262 0.899386 167.307C0.424027 168.352 0.130103 169.496 0.034406 170.673C-0.0612905 171.85 0.0431168 173.038 0.341662 174.168C0.640208 175.298 1.12704 176.349 1.77434 177.26L18.1976 200.512C18.8431 201.427 19.6371 202.183 20.5341 202.74C21.4312 203.296 22.4136 203.641 23.4252 203.755C24.4368 203.868 25.4578 203.748 26.4295 203.402C27.4013 203.055 28.3048 202.489 29.0884 201.735L180.581 56.4138C181.977 55.1036 183.716 54.3891 185.508 54.3891C187.301 54.3891 189.04 55.1036 190.435 56.4138L341.935 201.735C342.717 202.489 343.619 203.056 344.589 203.404C345.56 203.751 346.579 203.873 347.59 203.761C348.601 203.65 349.583 203.308 350.48 202.754C351.377 202.2 352.172 201.446 352.819 200.535L369.242 177.282C369.889 176.366 370.374 175.31 370.669 174.175C370.964 173.04 371.063 171.848 370.961 170.668C370.86 169.488 370.559 168.343 370.076 167.298C369.593 166.254 368.937 165.332 368.147 164.583Z" fill="#D13533"/>
</svg>
