<svg width="50" height="50" viewBox="0 0 378 377" fill="none" xmlns="http://www.w3.org/2000/svg">
<path d="M376.727 177.38C370.318 68.0546 270.982 -16.202 156.566 2.6474C77.7755 15.6535 14.63 79.5525 2.37789 158.342C-4.78487 203.958 4.6402 247.123 25.186 282.748L8.40989 345.14C4.64001 359.277 17.6457 372.095 31.5943 368.136L93.0435 351.172C120.941 367.571 153.55 376.995 188.422 376.995C294.732 376.995 382.947 283.314 376.727 177.38ZM280.595 258.621C278.899 262.014 276.825 265.218 274.186 268.234C269.474 273.324 264.385 277.094 258.73 279.356C253.075 281.806 246.855 282.937 240.257 282.937C230.644 282.937 220.277 280.677 209.533 275.965C198.6 271.252 187.856 265.03 177.112 257.302C166.179 249.385 156.001 240.526 146.199 230.913C136.397 221.111 127.726 210.744 119.809 200C112.081 189.255 105.861 178.511 101.337 167.767C96.8133 157.023 94.5518 146.657 94.5518 136.855C94.5518 130.446 95.6826 124.226 97.9445 118.571C100.206 112.728 103.788 107.45 108.878 102.738C114.909 96.7059 121.506 93.8785 128.481 93.8785C131.119 93.8785 133.758 94.4437 136.208 95.5747C138.659 96.7057 140.921 98.4021 142.618 100.853L164.483 131.765C166.179 134.216 167.499 136.289 168.253 138.363C169.195 140.436 169.572 142.321 169.572 144.206C169.572 146.468 168.818 148.73 167.499 150.991C166.179 153.253 164.483 155.515 162.221 157.777L155.058 165.317C153.927 166.448 153.55 167.579 153.55 169.087C153.55 169.841 153.739 170.595 153.927 171.349C154.304 172.102 154.493 172.668 154.681 173.233C156.378 176.438 159.394 180.396 163.54 185.297C167.876 190.198 172.4 195.287 177.3 200.188C182.39 205.277 187.291 209.801 192.38 214.137C197.281 218.284 201.428 221.111 204.632 222.807C205.198 222.996 205.763 223.373 206.329 223.561C207.082 223.938 207.836 223.938 208.779 223.938C210.475 223.938 211.606 223.373 212.737 222.242L219.9 215.079C222.35 212.629 224.612 210.932 226.686 209.801C228.948 208.482 231.021 207.728 233.472 207.728C235.357 207.728 237.242 208.105 239.315 209.047C241.388 209.99 243.65 211.121 245.912 212.817L277.202 235.059C279.653 236.756 281.349 238.829 282.48 241.091C283.423 243.542 283.988 245.804 283.988 248.443C282.857 251.647 282.103 255.228 280.595 258.621Z" fill="#D13533"/>
</svg>
