<svg width="348" height="50" viewBox="0 0 348 50" fill="none" xmlns="http://www.w3.org/2000/svg">
<path d="M31.3351 28.2808C25.4905 30.5307 20.4809 33.9055 14.2189 36.1554C12.9498 36.6448 11.9187 37.7809 11.0879 39.2209C20.769 44.1481 31.7776 39.7665 40.5194 33.3431C40.6613 33.2474 40.8074 33.1687 40.9577 33.0956C38.3611 29.5295 34.6665 27.5328 31.3351 28.2808Z" fill="url(#paint0_linear_312_611)"/>
<path d="M49.7072 10.8445C49.4108 9.24146 48.9015 7.6328 48.7846 5.82727C42.0467 10.1808 31.8688 15.2093 34.2609 24.3437C35.2503 27.6679 38.4273 30.5984 42.1553 31.6221C46.2339 25.8062 51.2727 19.8102 49.7072 10.8445Z" fill="url(#paint1_linear_312_611)"/>
<path d="M49.4096 5.41648C49.1299 4.75277 48.8127 4.13405 48.4536 3.57721C45.1932 8.3132 39.0189 10.0737 35.0947 13.0942C31.3375 15.9065 32.1724 23.7811 27.9977 27.7184C22.1532 32.2181 16.3086 34.468 10.0466 33.9055C9.21166 33.9055 7.95925 33.9055 6.70685 33.3431C5.03698 32.7806 3.78457 31.0932 2.94964 29.4058C1.91432 26.6103 1.80578 23.7192 2.30674 21.0081C1.34656 23.3761 0.812203 25.9241 0.695312 28.489C2.30674 34.9911 5.79677 39.0071 10.1468 41.1726C18.6464 45.4024 30.4524 42.5563 38.0169 37.2804C39.3278 36.3973 40.5468 35.3455 41.6865 34.1699C41.4569 33.7987 41.2106 33.4443 40.9601 33.0956C40.8098 33.1687 40.6637 33.2474 40.5217 33.3431C31.78 39.7665 20.7713 44.1481 11.0903 39.2209C11.921 37.7809 12.948 36.6448 14.2213 36.1554C20.4833 33.9055 25.4929 30.5307 31.3375 28.2808C34.9903 27.4596 39.0857 29.9345 41.6865 34.1699C42.3628 33.4724 43.0015 32.7187 43.6152 31.9256C47.0301 27.5271 49.5057 21.8012 50.9918 15.5297C51.0461 11.6824 50.5493 8.13883 49.4096 5.41648ZM42.154 31.6219C42.392 31.6894 42.63 31.7457 42.8721 31.7963C42.6341 31.7457 42.392 31.6894 42.154 31.6219ZM42.154 31.6219C38.4261 30.5982 35.2491 27.6678 34.2597 24.3436C31.8676 15.2091 42.0455 10.1806 48.7834 5.82709C48.9003 7.63824 49.4096 9.24127 49.706 10.8443C51.2715 19.8101 46.2327 25.806 42.154 31.6219Z" fill="#F5F7EA"/>
<path d="M48.4522 3.57758C47.4086 1.95205 46.0267 0.810233 44.2609 0.354633C37.5939 -1.36652 39.723 3.60008 29.7956 7.61611C23.592 10.1247 9.84481 9.76474 4.76005 16.61C3.75396 17.9655 2.93572 19.4505 2.30534 21.0141C1.80438 23.7196 1.91292 26.6107 2.94824 29.4062C3.78318 31.0936 5.03558 32.781 6.70545 33.3434C7.95786 33.9059 9.21026 33.9059 10.0452 33.9059C16.3072 34.4684 22.1518 32.2185 27.9963 27.7187C34.4671 24.4846 31.3361 15.9069 35.0933 13.0946C39.0175 10.0741 45.1918 8.31357 48.4522 3.57758Z" fill="url(#paint2_linear_312_611)"/>
<path d="M38.0146 37.2803C26.576 45.2505 5.4521 47.6973 0.688789 28.4946C0.492579 32.7862 1.46528 37.1341 3.56514 40.7733C7.74817 48.0235 13.5802 51.4433 24.3383 49.4297C35.1007 47.416 44.9613 41.3751 48.6976 29.4958C50.1045 25.0241 50.9269 20.0744 50.9895 15.5353C48.7853 24.8273 44.4144 32.9662 38.0146 37.2803Z" fill="url(#paint3_linear_312_611)"/>
<path d="M39.1977 15.5296C38.6675 17.2226 37.3399 19.2812 35.023 19.2812C32.706 19.2812 30.7773 17.2732 30.7773 15.4396C30.7773 13.6003 33.0024 12.6272 35.3236 12.2054C37.6238 11.7892 39.7571 13.7522 39.1977 15.5296Z" fill="#F5F7EA"/>
<path d="M35.3246 18.0159C37.0561 18.0159 38.4598 16.9028 38.4598 15.5298C38.4598 14.1567 37.0561 13.0436 35.3246 13.0436C33.5931 13.0436 32.1895 14.1567 32.1895 15.5298C32.1895 16.9028 33.5931 18.0159 35.3246 18.0159Z" fill="#FFDECD"/>
<path d="M35.3245 17.0988C36.4174 17.0988 37.3033 16.3962 37.3033 15.5296C37.3033 14.6629 36.4174 13.9603 35.3245 13.9603C34.2316 13.9603 33.3457 14.6629 33.3457 15.5296C33.3457 16.3962 34.2316 17.0988 35.3245 17.0988Z" fill="url(#paint4_radial_312_611)"/>
<path opacity="0.2" d="M41.9238 1.68741C42.504 1.68741 43.1887 1.79428 44.0236 2.00802C45.4263 2.368 46.5994 3.26795 47.5053 4.67974C47.7975 5.13534 48.0731 5.66406 48.3152 6.24903C49.2754 8.53266 49.768 11.6431 49.7388 15.2542C49.6052 15.7941 49.4549 16.3791 49.2712 17.0372C49.0917 17.6728 49.2211 18.3646 49.5551 18.8202C49.2462 22.1557 48.5573 25.6148 47.5429 28.8322C43.3139 42.2808 31.078 46.4599 24.1647 47.7536C22.1984 48.1192 20.3616 48.3048 18.7 48.3048C12.3378 48.3048 7.97529 45.6612 4.55205 39.7272C2.69849 36.5155 1.76754 32.5838 1.93453 28.6522C1.93453 28.624 1.9387 28.5903 1.9387 28.5565C2.05142 26.1998 2.53986 23.9274 3.39984 21.8125C3.99264 20.3558 4.74409 19.0002 5.64164 17.7909C8.76848 13.578 16.141 12.2393 22.0606 11.1594C25.1332 10.6025 28.0346 10.0738 30.1512 9.21887C34.9061 7.29522 37.0352 5.14659 38.5924 3.5773C39.8531 2.323 40.4835 1.68741 41.9238 1.68741ZM41.9238 0C37.9536 0 38.3335 4.15665 29.7963 7.61021C23.5928 10.1188 9.84554 9.75884 4.76078 16.6041C3.75469 17.9596 2.93645 19.4446 2.30607 21.0082C1.3459 23.3762 0.811539 25.9242 0.694648 28.4891V28.5228C0.694648 28.5228 0.694648 28.5116 0.694648 28.4891C0.498438 32.7807 1.47114 37.1286 3.571 40.7677C6.95666 46.6343 11.4236 49.9979 18.7084 49.9979C20.4242 49.9979 22.2944 49.8122 24.3442 49.4298C35.1065 47.4161 44.9671 41.3752 48.7034 29.4959C50.1103 25.0242 50.9327 20.0745 50.9953 15.5354C50.9828 15.5916 50.9703 15.6423 50.9578 15.6985C50.7991 16.351 50.628 16.9978 50.4526 17.6334C50.6321 16.9922 50.8033 16.351 50.9578 15.6985C50.9703 15.6423 50.9828 15.5916 50.9953 15.5354C51.0496 11.6881 50.5528 8.14455 49.409 5.4222C49.1293 4.75849 48.812 4.13977 48.453 3.58293C47.4093 1.95739 46.0275 0.815581 44.2616 0.359981C43.3306 0.112495 42.5708 0 41.9238 0Z" fill="#424242"/>
<path d="M68.408 13.696C70.84 13.696 72.9413 14.1547 74.712 15.072C76.504 15.968 77.8693 17.2587 78.808 18.944C79.768 20.6293 80.248 22.6133 80.248 24.896C80.248 27.1787 79.768 29.1627 78.808 30.848C77.8693 32.512 76.504 33.792 74.712 34.688C72.9413 35.5627 70.84 36 68.408 36H61.464V13.696H68.408ZM68.408 33.6C71.288 33.6 73.4853 32.8427 75 31.328C76.5147 29.792 77.272 27.648 77.272 24.896C77.272 22.1227 76.504 19.9573 74.968 18.4C73.4533 16.8427 71.2667 16.064 68.408 16.064H64.376V33.6H68.408ZM100.089 26.56C100.089 27.1147 100.057 27.7013 99.993 28.32H85.977C86.0837 30.048 86.6703 31.4027 87.737 32.384C88.825 33.344 90.137 33.824 91.673 33.824C92.9317 33.824 93.977 33.536 94.809 32.96C95.6623 32.3627 96.2597 31.5733 96.601 30.592H99.737C99.2677 32.2773 98.329 33.6533 96.921 34.72C95.513 35.7653 93.7637 36.288 91.673 36.288C90.009 36.288 88.5157 35.9147 87.193 35.168C85.8917 34.4213 84.8677 33.3653 84.121 32C83.3743 30.6133 83.001 29.0133 83.001 27.2C83.001 25.3867 83.3637 23.7973 84.089 22.432C84.8143 21.0667 85.8277 20.0213 87.129 19.296C88.4517 18.5493 89.9663 18.176 91.673 18.176C93.337 18.176 94.809 18.5387 96.089 19.264C97.369 19.9893 98.3503 20.992 99.033 22.272C99.737 23.5307 100.089 24.96 100.089 26.56ZM97.081 25.952C97.081 24.8427 96.8357 23.8933 96.345 23.104C95.8543 22.2933 95.1823 21.6853 94.329 21.28C93.497 20.8533 92.569 20.64 91.545 20.64C90.073 20.64 88.8143 21.1093 87.769 22.048C86.745 22.9867 86.1583 24.288 86.009 25.952H97.081ZM106.845 12.32V36H103.933V12.32H106.845ZM114.72 18.464V36H111.808V18.464H114.72ZM116.384 13.504L109.568 17.152V14.976L116.384 10.976V13.504ZM118.595 27.2C118.595 25.3867 118.957 23.808 119.683 22.464C120.408 21.0987 121.411 20.0427 122.691 19.296C123.992 18.5493 125.475 18.176 127.139 18.176C129.293 18.176 131.064 18.6987 132.451 19.744C133.859 20.7893 134.787 22.24 135.235 24.096H132.099C131.8 23.0293 131.213 22.1867 130.339 21.568C129.485 20.9493 128.419 20.64 127.139 20.64C125.475 20.64 124.131 21.216 123.107 22.368C122.083 23.4987 121.571 25.1093 121.571 27.2C121.571 29.312 122.083 30.944 123.107 32.096C124.131 33.248 125.475 33.824 127.139 33.824C128.419 33.824 129.485 33.5253 130.339 32.928C131.192 32.3307 131.779 31.4773 132.099 30.368H135.235C134.765 32.16 133.827 33.6 132.419 34.688C131.011 35.7547 129.251 36.288 127.139 36.288C125.475 36.288 123.992 35.9147 122.691 35.168C121.411 34.4213 120.408 33.3653 119.683 32C118.957 30.6347 118.595 29.0347 118.595 27.2ZM140.624 15.616C140.07 15.616 139.6 15.424 139.216 15.04C138.832 14.656 138.64 14.1867 138.64 13.632C138.64 13.0773 138.832 12.608 139.216 12.224C139.6 11.84 140.07 11.648 140.624 11.648C141.158 11.648 141.606 11.84 141.968 12.224C142.352 12.608 142.544 13.0773 142.544 13.632C142.544 14.1867 142.352 14.656 141.968 15.04C141.606 15.424 141.158 15.616 140.624 15.616ZM142.032 18.464V36H139.12V18.464H142.032ZM145.907 27.168C145.907 25.376 146.27 23.808 146.995 22.464C147.721 21.0987 148.713 20.0427 149.971 19.296C151.251 18.5493 152.67 18.176 154.227 18.176C155.763 18.176 157.097 18.5067 158.227 19.168C159.358 19.8293 160.201 20.6613 160.755 21.664V18.464H163.699V36H160.755V32.736C160.179 33.76 159.315 34.6133 158.163 35.296C157.033 35.9573 155.71 36.288 154.195 36.288C152.638 36.288 151.23 35.904 149.971 35.136C148.713 34.368 147.721 33.2907 146.995 31.904C146.27 30.5173 145.907 28.9387 145.907 27.168ZM160.755 27.2C160.755 25.8773 160.489 24.7253 159.955 23.744C159.422 22.7627 158.697 22.016 157.779 21.504C156.883 20.9707 155.891 20.704 154.803 20.704C153.715 20.704 152.723 20.96 151.827 21.472C150.931 21.984 150.217 22.7307 149.683 23.712C149.15 24.6933 148.883 25.8453 148.883 27.168C148.883 28.512 149.15 29.6853 149.683 30.688C150.217 31.6693 150.931 32.4267 151.827 32.96C152.723 33.472 153.715 33.728 154.803 33.728C155.891 33.728 156.883 33.472 157.779 32.96C158.697 32.4267 159.422 31.6693 159.955 30.688C160.489 29.6853 160.755 28.5227 160.755 27.2ZM174.828 36.288C173.484 36.288 172.279 36.064 171.212 35.616C170.146 35.1467 169.303 34.5067 168.684 33.696C168.066 32.864 167.724 31.9147 167.66 30.848H170.668C170.754 31.7227 171.159 32.4373 171.884 32.992C172.631 33.5467 173.602 33.824 174.796 33.824C175.906 33.824 176.78 33.5787 177.42 33.088C178.06 32.5973 178.38 31.9787 178.38 31.232C178.38 30.464 178.039 29.8987 177.356 29.536C176.674 29.152 175.618 28.7787 174.188 28.416C172.887 28.0747 171.82 27.7333 170.988 27.392C170.178 27.0293 169.474 26.5067 168.876 25.824C168.3 25.12 168.012 24.2027 168.012 23.072C168.012 22.176 168.279 21.3547 168.812 20.608C169.346 19.8613 170.103 19.2747 171.084 18.848C172.066 18.4 173.186 18.176 174.444 18.176C176.386 18.176 177.954 18.6667 179.148 19.648C180.343 20.6293 180.983 21.9733 181.068 23.68H178.156C178.092 22.7627 177.719 22.0267 177.036 21.472C176.375 20.9173 175.479 20.64 174.348 20.64C173.303 20.64 172.471 20.864 171.852 21.312C171.234 21.76 170.924 22.3467 170.924 23.072C170.924 23.648 171.106 24.128 171.468 24.512C171.852 24.8747 172.322 25.1733 172.876 25.408C173.452 25.6213 174.242 25.8667 175.244 26.144C176.503 26.4853 177.527 26.8267 178.316 27.168C179.106 27.488 179.778 27.9787 180.332 28.64C180.908 29.3013 181.207 30.1653 181.228 31.232C181.228 32.192 180.962 33.056 180.428 33.824C179.895 34.592 179.138 35.2 178.156 35.648C177.196 36.0747 176.087 36.288 174.828 36.288ZM192.782 27.168C192.782 25.376 193.145 23.808 193.87 22.464C194.596 21.0987 195.588 20.0427 196.846 19.296C198.126 18.5493 199.556 18.176 201.134 18.176C202.5 18.176 203.769 18.496 204.942 19.136C206.116 19.7547 207.012 20.576 207.63 21.6V12.32H210.574V36H207.63V32.704C207.054 33.7493 206.201 34.6133 205.07 35.296C203.94 35.9573 202.617 36.288 201.102 36.288C199.545 36.288 198.126 35.904 196.846 35.136C195.588 34.368 194.596 33.2907 193.87 31.904C193.145 30.5173 192.782 28.9387 192.782 27.168ZM207.63 27.2C207.63 25.8773 207.364 24.7253 206.83 23.744C206.297 22.7627 205.572 22.016 204.654 21.504C203.758 20.9707 202.766 20.704 201.678 20.704C200.59 20.704 199.598 20.96 198.702 21.472C197.806 21.984 197.092 22.7307 196.558 23.712C196.025 24.6933 195.758 25.8453 195.758 27.168C195.758 28.512 196.025 29.6853 196.558 30.688C197.092 31.6693 197.806 32.4267 198.702 32.96C199.598 33.472 200.59 33.728 201.678 33.728C202.766 33.728 203.758 33.472 204.654 32.96C205.572 32.4267 206.297 31.6693 206.83 30.688C207.364 29.6853 207.63 28.5227 207.63 27.2ZM214.407 27.168C214.407 25.376 214.77 23.808 215.495 22.464C216.221 21.0987 217.213 20.0427 218.471 19.296C219.751 18.5493 221.17 18.176 222.727 18.176C224.263 18.176 225.597 18.5067 226.727 19.168C227.858 19.8293 228.701 20.6613 229.255 21.664V18.464H232.199V36H229.255V32.736C228.679 33.76 227.815 34.6133 226.663 35.296C225.533 35.9573 224.21 36.288 222.695 36.288C221.138 36.288 219.73 35.904 218.471 35.136C217.213 34.368 216.221 33.2907 215.495 31.904C214.77 30.5173 214.407 28.9387 214.407 27.168ZM229.255 27.2C229.255 25.8773 228.989 24.7253 228.455 23.744C227.922 22.7627 227.197 22.016 226.279 21.504C225.383 20.9707 224.391 20.704 223.303 20.704C222.215 20.704 221.223 20.96 220.327 21.472C219.431 21.984 218.717 22.7307 218.183 23.712C217.65 24.6933 217.383 25.8453 217.383 27.168C217.383 28.512 217.65 29.6853 218.183 30.688C218.717 31.6693 219.431 32.4267 220.327 32.96C221.223 33.472 222.215 33.728 223.303 33.728C224.391 33.728 225.383 33.472 226.279 32.96C227.197 32.4267 227.922 31.6693 228.455 30.688C228.989 29.6853 229.255 28.5227 229.255 27.2ZM244.564 24.832C244.564 22.656 245.054 20.704 246.036 18.976C247.017 17.2267 248.35 15.8613 250.036 14.88C251.742 13.8987 253.63 13.408 255.7 13.408C258.132 13.408 260.254 13.9947 262.068 15.168C263.881 16.3413 265.204 18.0053 266.036 20.16H262.548C261.929 18.816 261.033 17.7813 259.86 17.056C258.708 16.3307 257.321 15.968 255.7 15.968C254.142 15.968 252.745 16.3307 251.508 17.056C250.27 17.7813 249.3 18.816 248.596 20.16C247.892 21.4827 247.54 23.04 247.54 24.832C247.54 26.6027 247.892 28.16 248.596 29.504C249.3 30.8267 250.27 31.8507 251.508 32.576C252.745 33.3013 254.142 33.664 255.7 33.664C257.321 33.664 258.708 33.312 259.86 32.608C261.033 31.8827 261.929 30.848 262.548 29.504H266.036C265.204 31.6373 263.881 33.2907 262.068 34.464C260.254 35.616 258.132 36.192 255.7 36.192C253.63 36.192 251.742 35.712 250.036 34.752C248.35 33.7707 247.017 32.416 246.036 30.688C245.054 28.96 244.564 27.008 244.564 24.832ZM269.282 27.168C269.282 25.376 269.645 23.808 270.37 22.464C271.096 21.0987 272.088 20.0427 273.346 19.296C274.626 18.5493 276.045 18.176 277.602 18.176C279.138 18.176 280.472 18.5067 281.602 19.168C282.733 19.8293 283.576 20.6613 284.13 21.664V18.464H287.074V36H284.13V32.736C283.554 33.76 282.69 34.6133 281.538 35.296C280.408 35.9573 279.085 36.288 277.57 36.288C276.013 36.288 274.605 35.904 273.346 35.136C272.088 34.368 271.096 33.2907 270.37 31.904C269.645 30.5173 269.282 28.9387 269.282 27.168ZM284.13 27.2C284.13 25.8773 283.864 24.7253 283.33 23.744C282.797 22.7627 282.072 22.016 281.154 21.504C280.258 20.9707 279.266 20.704 278.178 20.704C277.09 20.704 276.098 20.96 275.202 21.472C274.306 21.984 273.592 22.7307 273.058 23.712C272.525 24.6933 272.258 25.8453 272.258 27.168C272.258 28.512 272.525 29.6853 273.058 30.688C273.592 31.6693 274.306 32.4267 275.202 32.96C276.098 33.472 277.09 33.728 278.178 33.728C279.266 33.728 280.258 33.472 281.154 32.96C282.072 32.4267 282.797 31.6693 283.33 30.688C283.864 29.6853 284.13 28.5227 284.13 27.2ZM294.907 21.312C295.419 20.3093 296.145 19.5307 297.083 18.976C298.043 18.4213 299.206 18.144 300.571 18.144V21.152H299.803C296.539 21.152 294.907 22.9227 294.907 26.464V36H291.995V18.464H294.907V21.312ZM312.477 18.144C314.61 18.144 316.338 18.7947 317.661 20.096C318.983 21.376 319.645 23.232 319.645 25.664V36H316.765V26.08C316.765 24.3307 316.327 22.9973 315.453 22.08C314.578 21.1413 313.383 20.672 311.869 20.672C310.333 20.672 309.106 21.152 308.189 22.112C307.293 23.072 306.845 24.4693 306.845 26.304V36H303.933V18.464H306.845V20.96C307.421 20.064 308.199 19.3707 309.181 18.88C310.183 18.3893 311.282 18.144 312.477 18.144ZM340.402 26.56C340.402 27.1147 340.37 27.7013 340.306 28.32H326.29C326.396 30.048 326.983 31.4027 328.05 32.384C329.138 33.344 330.45 33.824 331.986 33.824C333.244 33.824 334.29 33.536 335.122 32.96C335.975 32.3627 336.572 31.5733 336.914 30.592H340.05C339.58 32.2773 338.642 33.6533 337.234 34.72C335.826 35.7653 334.076 36.288 331.986 36.288C330.322 36.288 328.828 35.9147 327.506 35.168C326.204 34.4213 325.18 33.3653 324.434 32C323.687 30.6133 323.314 29.0133 323.314 27.2C323.314 25.3867 323.676 23.7973 324.402 22.432C325.127 21.0667 326.14 20.0213 327.442 19.296C328.764 18.5493 330.279 18.176 331.986 18.176C333.65 18.176 335.122 18.5387 336.402 19.264C337.682 19.9893 338.663 20.992 339.346 22.272C340.05 23.5307 340.402 24.96 340.402 26.56ZM337.394 25.952C337.394 24.8427 337.148 23.8933 336.658 23.104C336.167 22.2933 335.495 21.6853 334.642 21.28C333.81 20.8533 332.882 20.64 331.858 20.64C330.386 20.64 329.127 21.1093 328.082 22.048C327.058 22.9867 326.471 24.288 326.322 25.952H337.394Z" fill="white"/>
<defs>
<linearGradient id="paint0_linear_312_611" x1="11.0896" y1="34.7307" x2="40.9577" y2="34.7307" gradientUnits="userSpaceOnUse">
<stop stop-color="#B63B3B"/>
<stop offset="0.8818" stop-color="#D64449"/>
</linearGradient>
<linearGradient id="paint1_linear_312_611" x1="33.904" y1="18.7241" x2="49.9995" y2="18.7241" gradientUnits="userSpaceOnUse">
<stop stop-color="#9E3333"/>
<stop offset="0.8818" stop-color="#D64449"/>
</linearGradient>
<linearGradient id="paint2_linear_312_611" x1="2.0157" y1="16.9964" x2="48.4522" y2="16.9964" gradientUnits="userSpaceOnUse">
<stop stop-color="#A83737"/>
<stop offset="0.8818" stop-color="#D64449"/>
</linearGradient>
<linearGradient id="paint3_linear_312_611" x1="25.8283" y1="33.9055" x2="25.8283" y2="50.099" gradientUnits="userSpaceOnUse">
<stop offset="3.6337e-05" stop-color="#FF9D85"/>
<stop offset="0.8818" stop-color="#ECDEC9"/>
</linearGradient>
<radialGradient id="paint4_radial_312_611" cx="0" cy="0" r="1" gradientUnits="userSpaceOnUse" gradientTransform="translate(35.3237 15.5318) scale(1.62495 2.18935)">
<stop stop-color="#F79792"/>
<stop offset="0.8818" stop-color="#EE7276"/>
</radialGradient>
</defs>
</svg>
