<svg width="221" height="46" viewBox="0 0 221 46" fill="none" xmlns="http://www.w3.org/2000/svg">
<path d="M18.3025 25.6246C14.815 27.4245 11.8257 30.1243 8.08902 31.9242C7.33173 32.3157 6.71643 33.2247 6.2207 34.3766C11.9975 38.3184 18.5665 34.8131 23.7829 29.6744C23.8676 29.5979 23.9548 29.5349 24.0444 29.4764C22.495 26.6235 20.2904 25.0261 18.3025 25.6246Z" fill="url(#paint0_linear_312_611)"/>
<path d="M29.2638 11.6756C29.087 10.3932 28.783 9.10629 28.7133 7.66187C24.6927 11.1447 18.6194 15.1674 20.0468 22.475C20.6372 25.1344 22.5329 27.4788 24.7574 28.2977C27.1912 23.645 30.198 18.8482 29.2638 11.6756Z" fill="url(#paint1_linear_312_611)"/>
<path d="M29.088 7.33323C28.9211 6.80226 28.7318 6.30729 28.5176 5.86182C26.572 9.65061 22.8877 11.059 20.5461 13.4754C18.3041 15.7253 18.8023 22.0249 16.3112 25.1747C12.8237 28.7746 9.3362 30.5745 5.59957 30.1245C5.10135 30.1245 4.35402 30.1245 3.6067 29.6745C2.61026 29.2245 1.86294 27.8746 1.36472 26.5247C0.746929 24.2883 0.682161 21.9754 0.981091 19.8065C0.408141 21.7009 0.0892817 23.7393 0.0195312 25.7912C0.981091 30.9929 3.06364 34.2058 5.65935 35.9382C10.7312 39.322 17.776 37.0451 22.2899 32.8243C23.0721 32.1179 23.7995 31.2764 24.4795 30.336C24.3425 30.039 24.1955 29.7555 24.0461 29.4765C23.9564 29.535 23.8692 29.598 23.7845 29.6745C18.5682 34.8132 11.9992 38.3185 6.22234 34.3767C6.71807 33.2248 7.33087 32.3159 8.09066 31.9244C11.8273 30.1245 14.8166 27.4246 18.3041 25.6247C20.4838 24.9678 22.9276 26.9477 24.4795 30.336C24.8831 29.778 25.2642 29.175 25.6304 28.5406C27.6681 25.0218 29.1453 20.441 30.0322 15.4238C30.0645 12.346 29.7681 9.51111 29.088 7.33323ZM24.7585 28.2976C24.9005 28.3516 25.0425 28.3966 25.187 28.4371C25.045 28.3966 24.9005 28.3516 24.7585 28.2976ZM24.7585 28.2976C22.534 27.4786 20.6383 25.1343 20.0479 22.4749C18.6205 15.1673 24.6938 11.1445 28.7144 7.66172C28.7841 9.11064 29.088 10.3931 29.2649 11.6755C30.1991 18.8481 27.1923 23.6448 24.7585 28.2976Z" fill="#F5F7EA"/>
<path d="M28.516 5.86202C27.8932 4.56159 27.0687 3.64814 26.015 3.28366C22.0367 1.90673 23.3071 5.88001 17.3833 9.09284C13.6816 11.0997 5.47842 10.8117 2.44428 16.2879C1.84393 17.3724 1.35567 18.5603 0.979519 19.8112C0.680588 21.9756 0.745356 24.2885 1.36315 26.5249C1.86136 27.8748 2.60869 29.2247 3.60513 29.6747C4.35245 30.1247 5.09978 30.1247 5.598 30.1247C9.33463 30.5747 12.8222 28.7748 16.3097 25.1749C20.1709 22.5876 18.3025 15.7255 20.5445 13.4756C22.8861 11.0592 26.5705 9.65081 28.516 5.86202Z" fill="url(#paint2_linear_312_611)"/>
<path d="M22.2876 32.8243C15.462 39.2004 2.85709 41.1578 0.0147544 25.7956C-0.102327 29.229 0.478097 32.7073 1.73111 35.6186C4.22718 41.4188 7.70724 44.1546 14.1268 42.5437C20.5488 40.9328 26.4327 36.1001 28.6623 26.5966C29.5018 23.0193 29.9925 19.0595 30.0299 15.4282C28.7146 22.8618 26.1064 29.373 22.2876 32.8243Z" fill="url(#paint3_linear_312_611)"/>
<path d="M22.9933 15.4236C22.6769 16.7781 21.8847 18.425 20.5022 18.425C19.1196 18.425 17.9688 16.8186 17.9688 15.3516C17.9688 13.8802 19.2965 13.1018 20.6815 12.7643C22.0541 12.4313 23.3271 14.0017 22.9933 15.4236Z" fill="#F5F7EA"/>
<path d="M20.6833 17.4126C21.7165 17.4126 22.5541 16.5221 22.5541 15.4237C22.5541 14.3253 21.7165 13.4348 20.6833 13.4348C19.6501 13.4348 18.8125 14.3253 18.8125 15.4237C18.8125 16.5221 19.6501 17.4126 20.6833 17.4126Z" fill="#FFDECD"/>
<path d="M20.6827 16.6791C21.3349 16.6791 21.8635 16.117 21.8635 15.4236C21.8635 14.7303 21.3349 14.1682 20.6827 14.1682C20.0306 14.1682 19.502 14.7303 19.502 15.4236C19.502 16.117 20.0306 16.6791 20.6827 16.6791Z" fill="url(#paint4_radial_312_611)"/>
<path opacity="0.2" d="M24.6206 4.34993C24.9669 4.34993 25.3754 4.43542 25.8737 4.60641C26.7107 4.8944 27.4107 5.61436 27.9512 6.74379C28.1256 7.10827 28.29 7.53125 28.4345 7.99923C29.0075 9.82612 29.3014 12.3145 29.284 15.2033C29.2042 15.6353 29.1146 16.1033 29.005 16.6297C28.8978 17.1382 28.9751 17.6917 29.1744 18.0562C28.99 20.7245 28.579 23.4919 27.9736 26.0657C25.4502 36.8246 18.1488 40.1679 14.0236 41.2029C12.8503 41.4954 11.7542 41.6439 10.7627 41.6439C6.9663 41.6439 4.36312 39.529 2.32043 34.7817C1.21438 32.2124 0.65887 29.0671 0.758514 25.9217C0.758514 25.8992 0.761005 25.8722 0.761005 25.8452C0.828264 23.9598 1.11972 22.1419 1.63289 20.45C1.98662 19.2846 2.43502 18.2002 2.9706 17.2327C4.83642 13.8624 9.23569 12.7915 12.768 11.9275C14.6015 11.482 16.3328 11.0591 17.5958 10.3751C20.4331 8.83618 21.7036 7.11727 22.6328 5.86184C23.3851 4.8584 23.7612 4.34993 24.6206 4.34993ZM24.6206 3C22.2516 3 22.4783 6.32532 17.384 9.08816C13.6823 11.0951 5.47913 10.8071 2.44498 16.2833C1.84463 17.3677 1.35637 18.5556 0.980221 19.8066C0.40727 21.701 0.0884112 23.7394 0.0186607 25.7912V25.8182C0.0186607 25.8182 0.0186607 25.8092 0.0186607 25.7912C-0.0984204 29.2246 0.482003 32.7029 1.73502 35.6142C3.75529 40.3074 6.42076 42.9983 10.7677 42.9983C11.7915 42.9983 12.9075 42.8498 14.1307 42.5438C20.5527 40.9329 26.4366 36.1002 28.6662 26.5967C29.5057 23.0194 29.9964 19.0596 30.0338 15.4283C30.0263 15.4733 30.0188 15.5138 30.0114 15.5588C29.9167 16.0808 29.8146 16.5982 29.7099 17.1067C29.8171 16.5937 29.9192 16.0808 30.0114 15.5588C30.0188 15.5138 30.0263 15.4733 30.0338 15.4283C30.0662 12.3505 29.7697 9.51564 29.0872 7.33776C28.9203 6.80679 28.7309 6.31182 28.5167 5.86634C27.8939 4.56591 27.0694 3.65246 26.0157 3.28798C25.4601 3.09 25.0068 3 24.6206 3Z" fill="#424242"/>
<path d="M49.88 16.06C51.4 16.06 52.7133 16.3467 53.82 16.92C54.94 17.48 55.7933 18.2867 56.38 19.34C56.98 20.3933 57.28 21.6333 57.28 23.06C57.28 24.4867 56.98 25.7267 56.38 26.78C55.7933 27.82 54.94 28.62 53.82 29.18C52.7133 29.7267 51.4 30 49.88 30H45.54V16.06H49.88ZM49.88 28.5C51.68 28.5 53.0533 28.0267 54 27.08C54.9467 26.12 55.42 24.78 55.42 23.06C55.42 21.3267 54.94 19.9733 53.98 19C53.0333 18.0267 51.6667 17.54 49.88 17.54H47.36V28.5H49.88ZM69.6806 24.1C69.6806 24.4467 69.6606 24.8133 69.6206 25.2H60.8606C60.9273 26.28 61.294 27.1267 61.9606 27.74C62.6406 28.34 63.4606 28.64 64.4206 28.64C65.2073 28.64 65.8606 28.46 66.3806 28.1C66.914 27.7267 67.2873 27.2333 67.5006 26.62H69.4606C69.1673 27.6733 68.5806 28.5333 67.7006 29.2C66.8206 29.8533 65.7273 30.18 64.4206 30.18C63.3806 30.18 62.4473 29.9467 61.6206 29.48C60.8073 29.0133 60.1673 28.3533 59.7006 27.5C59.234 26.6333 59.0006 25.6333 59.0006 24.5C59.0006 23.3667 59.2273 22.3733 59.6806 21.52C60.134 20.6667 60.7673 20.0133 61.5806 19.56C62.4073 19.0933 63.354 18.86 64.4206 18.86C65.4606 18.86 66.3806 19.0867 67.1806 19.54C67.9806 19.9933 68.594 20.62 69.0206 21.42C69.4606 22.2067 69.6806 23.1 69.6806 24.1ZM67.8006 23.72C67.8006 23.0267 67.6473 22.4333 67.3406 21.94C67.034 21.4333 66.614 21.0533 66.0806 20.8C65.5606 20.5333 64.9806 20.4 64.3406 20.4C63.4206 20.4 62.634 20.6933 61.9806 21.28C61.3406 21.8667 60.974 22.68 60.8806 23.72H67.8006ZM73.903 15.2V30H72.083V15.2H73.903ZM78.8248 19.04V30H77.0048V19.04H78.8248ZM79.8648 15.94L75.6048 18.22V16.86L79.8648 14.36V15.94ZM81.2467 24.5C81.2467 23.3667 81.4734 22.38 81.9267 21.54C82.3801 20.6867 83.0067 20.0267 83.8067 19.56C84.6201 19.0933 85.5467 18.86 86.5867 18.86C87.9334 18.86 89.0401 19.1867 89.9067 19.84C90.7867 20.4933 91.3667 21.4 91.6467 22.56H89.6867C89.5001 21.8933 89.1334 21.3667 88.5867 20.98C88.0534 20.5933 87.3867 20.4 86.5867 20.4C85.5467 20.4 84.7067 20.76 84.0667 21.48C83.4267 22.1867 83.1067 23.1933 83.1067 24.5C83.1067 25.82 83.4267 26.84 84.0667 27.56C84.7067 28.28 85.5467 28.64 86.5867 28.64C87.3867 28.64 88.0534 28.4533 88.5867 28.08C89.1201 27.7067 89.4867 27.1733 89.6867 26.48H91.6467C91.3534 27.6 90.7667 28.5 89.8867 29.18C89.0067 29.8467 87.9067 30.18 86.5867 30.18C85.5467 30.18 84.6201 29.9467 83.8067 29.48C83.0067 29.0133 82.3801 28.3533 81.9267 27.5C81.4734 26.6467 81.2467 25.6467 81.2467 24.5ZM95.0152 17.26C94.6685 17.26 94.3752 17.14 94.1352 16.9C93.8952 16.66 93.7752 16.3667 93.7752 16.02C93.7752 15.6733 93.8952 15.38 94.1352 15.14C94.3752 14.9 94.6685 14.78 95.0152 14.78C95.3485 14.78 95.6285 14.9 95.8552 15.14C96.0952 15.38 96.2152 15.6733 96.2152 16.02C96.2152 16.3667 96.0952 16.66 95.8552 16.9C95.6285 17.14 95.3485 17.26 95.0152 17.26ZM95.8952 19.04V30H94.0752V19.04H95.8952ZM98.317 24.48C98.317 23.36 98.5437 22.38 98.997 21.54C99.4504 20.6867 100.07 20.0267 100.857 19.56C101.657 19.0933 102.544 18.86 103.517 18.86C104.477 18.86 105.31 19.0667 106.017 19.48C106.724 19.8933 107.25 20.4133 107.597 21.04V19.04H109.437V30H107.597V27.96C107.237 28.6 106.697 29.1333 105.977 29.56C105.27 29.9733 104.444 30.18 103.497 30.18C102.524 30.18 101.644 29.94 100.857 29.46C100.07 28.98 99.4504 28.3067 98.997 27.44C98.5437 26.5733 98.317 25.5867 98.317 24.48ZM107.597 24.5C107.597 23.6733 107.43 22.9533 107.097 22.34C106.764 21.7267 106.31 21.26 105.737 20.94C105.177 20.6067 104.557 20.44 103.877 20.44C103.197 20.44 102.577 20.6 102.017 20.92C101.457 21.24 101.01 21.7067 100.677 22.32C100.344 22.9333 100.177 23.6533 100.177 24.48C100.177 25.32 100.344 26.0533 100.677 26.68C101.01 27.2933 101.457 27.7667 102.017 28.1C102.577 28.42 103.197 28.58 103.877 28.58C104.557 28.58 105.177 28.42 105.737 28.1C106.31 27.7667 106.764 27.2933 107.097 26.68C107.43 26.0533 107.597 25.3267 107.597 24.5ZM116.393 30.18C115.553 30.18 114.799 30.04 114.133 29.76C113.466 29.4667 112.939 29.0667 112.553 28.56C112.166 28.04 111.953 27.4467 111.913 26.78H113.793C113.846 27.3267 114.099 27.7733 114.553 28.12C115.019 28.4667 115.626 28.64 116.373 28.64C117.066 28.64 117.613 28.4867 118.013 28.18C118.413 27.8733 118.613 27.4867 118.613 27.02C118.613 26.54 118.399 26.1867 117.973 25.96C117.546 25.72 116.886 25.4867 115.993 25.26C115.179 25.0467 114.513 24.8333 113.993 24.62C113.486 24.3933 113.046 24.0667 112.673 23.64C112.313 23.2 112.133 22.6267 112.133 21.92C112.133 21.36 112.299 20.8467 112.633 20.38C112.966 19.9133 113.439 19.5467 114.053 19.28C114.666 19 115.366 18.86 116.153 18.86C117.366 18.86 118.346 19.1667 119.093 19.78C119.839 20.3933 120.239 21.2333 120.293 22.3H118.473C118.433 21.7267 118.199 21.2667 117.773 20.92C117.359 20.5733 116.799 20.4 116.093 20.4C115.439 20.4 114.919 20.54 114.533 20.82C114.146 21.1 113.953 21.4667 113.953 21.92C113.953 22.28 114.066 22.58 114.293 22.82C114.533 23.0467 114.826 23.2333 115.173 23.38C115.533 23.5133 116.026 23.6667 116.653 23.84C117.439 24.0533 118.079 24.2667 118.573 24.48C119.066 24.68 119.486 24.9867 119.833 25.4C120.193 25.8133 120.379 26.3533 120.393 27.02C120.393 27.62 120.226 28.16 119.893 28.64C119.559 29.12 119.086 29.5 118.473 29.78C117.873 30.0467 117.179 30.18 116.393 30.18ZM127.614 24.48C127.614 23.36 127.841 22.38 128.294 21.54C128.747 20.6867 129.367 20.0267 130.154 19.56C130.954 19.0933 131.847 18.86 132.834 18.86C133.687 18.86 134.481 19.06 135.214 19.46C135.947 19.8467 136.507 20.36 136.894 21V15.2H138.734V30H136.894V27.94C136.534 28.5933 136.001 29.1333 135.294 29.56C134.587 29.9733 133.761 30.18 132.814 30.18C131.841 30.18 130.954 29.94 130.154 29.46C129.367 28.98 128.747 28.3067 128.294 27.44C127.841 26.5733 127.614 25.5867 127.614 24.48ZM136.894 24.5C136.894 23.6733 136.727 22.9533 136.394 22.34C136.061 21.7267 135.607 21.26 135.034 20.94C134.474 20.6067 133.854 20.44 133.174 20.44C132.494 20.44 131.874 20.6 131.314 20.92C130.754 21.24 130.307 21.7067 129.974 22.32C129.641 22.9333 129.474 23.6533 129.474 24.48C129.474 25.32 129.641 26.0533 129.974 26.68C130.307 27.2933 130.754 27.7667 131.314 28.1C131.874 28.42 132.494 28.58 133.174 28.58C133.854 28.58 134.474 28.42 135.034 28.1C135.607 27.7667 136.061 27.2933 136.394 26.68C136.727 26.0533 136.894 25.3267 136.894 24.5ZM141.13 24.48C141.13 23.36 141.356 22.38 141.81 21.54C142.263 20.6867 142.883 20.0267 143.67 19.56C144.47 19.0933 145.356 18.86 146.33 18.86C147.29 18.86 148.123 19.0667 148.83 19.48C149.536 19.8933 150.063 20.4133 150.41 21.04V19.04H152.25V30H150.41V27.96C150.05 28.6 149.51 29.1333 148.79 29.56C148.083 29.9733 147.256 30.18 146.31 30.18C145.336 30.18 144.456 29.94 143.67 29.46C142.883 28.98 142.263 28.3067 141.81 27.44C141.356 26.5733 141.13 25.5867 141.13 24.48ZM150.41 24.5C150.41 23.6733 150.243 22.9533 149.91 22.34C149.576 21.7267 149.123 21.26 148.55 20.94C147.99 20.6067 147.37 20.44 146.69 20.44C146.01 20.44 145.39 20.6 144.83 20.92C144.27 21.24 143.823 21.7067 143.49 22.32C143.156 22.9333 142.99 23.6533 142.99 24.48C142.99 25.32 143.156 26.0533 143.49 26.68C143.823 27.2933 144.27 27.7667 144.83 28.1C145.39 28.42 146.01 28.58 146.69 28.58C147.37 28.58 147.99 28.42 148.55 28.1C149.123 27.7667 149.576 27.2933 149.91 26.68C150.243 26.0533 150.41 25.3267 150.41 24.5ZM159.977 23.02C159.977 21.66 160.284 20.44 160.897 19.36C161.511 18.2667 162.344 17.4133 163.397 16.8C164.464 16.1867 165.644 15.88 166.937 15.88C168.457 15.88 169.784 16.2467 170.917 16.98C172.051 17.7133 172.877 18.7533 173.397 20.1H171.217C170.831 19.26 170.271 18.6133 169.537 18.16C168.817 17.7067 167.951 17.48 166.937 17.48C165.964 17.48 165.091 17.7067 164.317 18.16C163.544 18.6133 162.937 19.26 162.497 20.1C162.057 20.9267 161.837 21.9 161.837 23.02C161.837 24.1267 162.057 25.1 162.497 25.94C162.937 26.7667 163.544 27.4067 164.317 27.86C165.091 28.3133 165.964 28.54 166.937 28.54C167.951 28.54 168.817 28.32 169.537 27.88C170.271 27.4267 170.831 26.78 171.217 25.94H173.397C172.877 27.2733 172.051 28.3067 170.917 29.04C169.784 29.76 168.457 30.12 166.937 30.12C165.644 30.12 164.464 29.82 163.397 29.22C162.344 28.6067 161.511 27.76 160.897 26.68C160.284 25.6 159.977 24.38 159.977 23.02ZM175.426 24.48C175.426 23.36 175.653 22.38 176.106 21.54C176.56 20.6867 177.18 20.0267 177.966 19.56C178.766 19.0933 179.653 18.86 180.626 18.86C181.586 18.86 182.42 19.0667 183.126 19.48C183.833 19.8933 184.36 20.4133 184.706 21.04V19.04H186.546V30H184.706V27.96C184.346 28.6 183.806 29.1333 183.086 29.56C182.38 29.9733 181.553 30.18 180.606 30.18C179.633 30.18 178.753 29.94 177.966 29.46C177.18 28.98 176.56 28.3067 176.106 27.44C175.653 26.5733 175.426 25.5867 175.426 24.48ZM184.706 24.5C184.706 23.6733 184.54 22.9533 184.206 22.34C183.873 21.7267 183.42 21.26 182.846 20.94C182.286 20.6067 181.666 20.44 180.986 20.44C180.306 20.44 179.686 20.6 179.126 20.92C178.566 21.24 178.12 21.7067 177.786 22.32C177.453 22.9333 177.286 23.6533 177.286 24.48C177.286 25.32 177.453 26.0533 177.786 26.68C178.12 27.2933 178.566 27.7667 179.126 28.1C179.686 28.42 180.306 28.58 180.986 28.58C181.666 28.58 182.286 28.42 182.846 28.1C183.42 27.7667 183.873 27.2933 184.206 26.68C184.54 26.0533 184.706 25.3267 184.706 24.5ZM191.442 20.82C191.762 20.1933 192.215 19.7067 192.802 19.36C193.402 19.0133 194.129 18.84 194.982 18.84V20.72H194.502C192.462 20.72 191.442 21.8267 191.442 24.04V30H189.622V19.04H191.442V20.82ZM202.423 18.84C203.756 18.84 204.836 19.2467 205.663 20.06C206.49 20.86 206.903 22.02 206.903 23.54V30H205.103V23.8C205.103 22.7067 204.83 21.8733 204.283 21.3C203.736 20.7133 202.99 20.42 202.043 20.42C201.083 20.42 200.316 20.72 199.743 21.32C199.183 21.92 198.903 22.7933 198.903 23.94V30H197.083V19.04H198.903V20.6C199.263 20.04 199.75 19.6067 200.363 19.3C200.99 18.9933 201.676 18.84 202.423 18.84ZM219.876 24.1C219.876 24.4467 219.856 24.8133 219.816 25.2H211.056C211.123 26.28 211.489 27.1267 212.156 27.74C212.836 28.34 213.656 28.64 214.616 28.64C215.403 28.64 216.056 28.46 216.576 28.1C217.109 27.7267 217.483 27.2333 217.696 26.62H219.656C219.363 27.6733 218.776 28.5333 217.896 29.2C217.016 29.8533 215.923 30.18 214.616 30.18C213.576 30.18 212.643 29.9467 211.816 29.48C211.003 29.0133 210.363 28.3533 209.896 27.5C209.429 26.6333 209.196 25.6333 209.196 24.5C209.196 23.3667 209.423 22.3733 209.876 21.52C210.329 20.6667 210.963 20.0133 211.776 19.56C212.603 19.0933 213.549 18.86 214.616 18.86C215.656 18.86 216.576 19.0867 217.376 19.54C218.176 19.9933 218.789 20.62 219.216 21.42C219.656 22.2067 219.876 23.1 219.876 24.1ZM217.996 23.72C217.996 23.0267 217.843 22.4333 217.536 21.94C217.229 21.4333 216.809 21.0533 216.276 20.8C215.756 20.5333 215.176 20.4 214.536 20.4C213.616 20.4 212.829 20.6933 212.176 21.28C211.536 21.8667 211.169 22.68 211.076 23.72H217.996Z" fill="white"/>
<defs>
<linearGradient id="paint0_linear_312_611" x1="6.2217" y1="30.7844" x2="24.0444" y2="30.7844" gradientUnits="userSpaceOnUse">
<stop stop-color="#B63B3B"/>
<stop offset="0.8818" stop-color="#D64449"/>
</linearGradient>
<linearGradient id="paint1_linear_312_611" x1="19.8338" y1="17.9793" x2="29.4382" y2="17.9793" gradientUnits="userSpaceOnUse">
<stop stop-color="#9E3333"/>
<stop offset="0.8818" stop-color="#D64449"/>
</linearGradient>
<linearGradient id="paint2_linear_312_611" x1="0.806687" y1="16.5971" x2="28.516" y2="16.5971" gradientUnits="userSpaceOnUse">
<stop stop-color="#A83737"/>
<stop offset="0.8818" stop-color="#D64449"/>
</linearGradient>
<linearGradient id="paint3_linear_312_611" x1="15.0158" y1="30.1244" x2="15.0158" y2="43.0792" gradientUnits="userSpaceOnUse">
<stop offset="3.6337e-05" stop-color="#FF9D85"/>
<stop offset="0.8818" stop-color="#ECDEC9"/>
</linearGradient>
<radialGradient id="paint4_radial_312_611" cx="0" cy="0" r="1" gradientUnits="userSpaceOnUse" gradientTransform="translate(20.6822 15.4254) scale(0.969631 1.75148)">
<stop stop-color="#F79792"/>
<stop offset="0.8818" stop-color="#EE7276"/>
</radialGradient>
</defs>
</svg>
